<svg width="38" height="46" viewBox="0 0 38 46" fill="none" xmlns="http://www.w3.org/2000/svg">
<path d="M27.7615 3.31641C27.2396 6.81867 24.4902 9.56879 20.988 10.0908L18.364 10.4805C18.7054 11.4605 18.9419 12.4689 19.0876 13.4541C19.7518 13.418 20.4136 13.3199 21.0632 13.1592C29.7933 11.0003 37.1025 11.8295 37.0183 28.291C37.0071 30.4931 36.4592 32.866 35.5095 35.1367V27H32.5095V40.2705C31.8894 41.0628 31.2202 41.8024 30.5095 42.4678V27H29.5095V43.3311C29.1829 43.5915 28.8493 43.8369 28.5095 44.0645V27H26.5095V45.1641C25.857 45.4472 25.1887 45.664 24.5095 45.8057V27H23.5095V45.959C23.1781 45.9907 22.8445 46.0024 22.5095 45.9961V27H20.5095V45.7314C19.851 45.6016 19.1801 45.5371 18.5095 45.5371V27H15.5095V45.9189C14.8374 46.0108 14.1694 46.0221 13.5095 45.959V27H12.5095V45.8057C12.1732 45.7355 11.8399 45.646 11.5095 45.54V27H10.5095V45.1641C10.1719 45.0176 9.83811 44.8544 9.50951 44.6738V27H8.50951V44.0645C8.16957 43.8368 7.83621 43.5915 7.50951 43.3311V27H5.50951V41.4521C4.78637 40.6618 4.11566 39.7973 3.50951 38.8818V27H1.50951V35.1367C0.559801 32.866 0.0119536 30.4932 0.000720293 28.291C-0.0834844 11.8285 7.22653 11.0002 15.9568 13.1592C16.4458 13.2802 16.9416 13.3647 17.4402 13.415C16.9538 10.4625 15.5695 7.35699 12.8347 5.89844C12.4394 5.6874 12.2887 5.1959 12.4997 4.7998C12.7117 4.40469 13.2017 4.25483 13.5994 4.46582C15.5866 5.52545 16.9685 7.27721 17.8708 9.24902L18.1667 7.26758C18.6887 3.76541 21.438 1.01517 24.9402 0.493164L28.2566 0L27.7615 3.31641Z" fill="#EDEDEF"/>
</svg>
