<svg width="64" height="64" viewBox="0 0 64 64" fill="none" xmlns="http://www.w3.org/2000/svg">
<path d="M40.7618 10.3164C40.2399 13.8187 37.4905 16.5688 33.9883 17.0908L31.3643 17.4805C31.7056 18.4602 31.9422 19.4683 32.088 20.4531C32.7518 20.417 33.4131 20.3198 34.0626 20.1592C42.7929 18.0001 50.102 18.8297 50.0176 35.292C50.0064 37.4946 49.4589 39.8675 48.5089 42.1387V34H45.5089V47.2725C44.8889 48.0643 44.2193 48.8027 43.5089 49.4678V34H42.5089V50.332C42.1824 50.5923 41.8486 50.8369 41.5089 51.0645V34H39.5089V52.165C38.8564 52.4481 38.188 52.664 37.5089 52.8057V34H36.5089V52.959C36.1775 52.9907 35.8438 53.0025 35.5089 52.9961V34H33.5089V52.7324C32.8503 52.6026 32.1794 52.5371 31.5089 52.5371V34H28.5089V52.9199C27.8368 53.0117 27.1687 53.0221 26.5089 52.959V34H25.5089V52.8057C25.1727 52.7355 24.839 52.647 24.5089 52.541V34H23.5089V52.165C23.1713 52.0185 22.8374 51.8544 22.5089 51.6738V34H21.5089V51.0645C21.1692 50.8369 20.8353 50.5923 20.5089 50.332V34H18.5089V48.4531C17.7858 47.6628 17.115 46.7982 16.5089 45.8828V34H14.5089V42.1367C13.5593 39.8662 13.0114 37.494 13.0001 35.292C12.9157 18.8291 20.226 18.0003 28.9561 20.1592C29.4453 20.2802 29.9418 20.3647 30.4405 20.415C29.9541 17.4625 28.5698 14.357 25.835 12.8984C25.4397 12.6874 25.289 12.1959 25.5001 11.7998C25.712 11.4047 26.202 11.2548 26.5997 11.4658C28.5869 12.5255 29.9688 14.2772 30.8712 16.249L31.1671 14.2676C31.689 10.7654 34.4383 8.01516 37.9405 7.49316L41.2569 7L40.7618 10.3164Z" fill="#EDEDEF"/>
<g filter="url(#filter0_d_1_2)">
<rect x="10" y="30" width="44" height="4" rx="2" fill="#F32D3E"/>
</g>
<defs>
<filter id="filter0_d_1_2" x="6" y="27" width="52" height="12" filterUnits="userSpaceOnUse" color-interpolation-filters="sRGB">
<feFlood flood-opacity="0" result="BackgroundImageFix"/>
<feColorMatrix in="SourceAlpha" type="matrix" values="0 0 0 0 0 0 0 0 0 0 0 0 0 0 0 0 0 0 127 0" result="hardAlpha"/>
<feOffset dy="1"/>
<feGaussianBlur stdDeviation="2"/>
<feComposite in2="hardAlpha" operator="out"/>
<feColorMatrix type="matrix" values="0 0 0 0 0.758786 0 0 0 0 0 0 0 0 0 0 0 0 0 0.25 0"/>
<feBlend mode="normal" in2="BackgroundImageFix" result="effect1_dropShadow_1_2"/>
<feBlend mode="normal" in="SourceGraphic" in2="effect1_dropShadow_1_2" result="shape"/>
</filter>
</defs>
</svg>
